<svg viewBox="0 0 24 24" xmlns="http://www.w3.org/2000/svg">
    <path fill="currentColor" d="M23.4232 6.71765L22.2535 5.5784C21.9225 5.23375 21.4714 5.02977 20.9938 5.00878C20.7168 4.98132 20.4372 5.01847 20.177 5.11731C19.9168 5.21615 19.6831 5.37399 19.4943 5.5784L11.9963 12.9835L4.49842 5.5784C4.30957 5.37399 4.07585 5.21615 3.81564 5.11731C3.55543 5.01847 3.27584 4.98132 2.99884 5.00878C2.52132 5.02977 2.07023 5.23375 1.73919 5.5784L0.599502 6.71765C0.239216 7.05286 0.0240078 7.51538 -0.000331327 8.00679C-0.00581352 8.26631 0.0449592 8.52395 0.1485 8.762C0.252041 9.00005 0.405897 9.21288 0.599502 9.38588L10.6167 19.4292C10.7925 19.6173 11.0067 19.7655 11.2447 19.8638C11.4827 19.962 11.739 20.0081 11.9963 19.9988C12.2577 20.0049 12.5176 19.9574 12.76 19.8595C13.0024 19.7615 13.2222 19.6151 13.4059 19.4292L23.4232 9.47582C23.6234 9.29023 23.7788 9.06151 23.8776 8.80699C23.9763 8.55247 24.0158 8.27883 23.993 8.00679C23.9766 7.51968 23.7724 7.05777 23.4232 6.71765Z" />
</svg>
