<svg viewBox="0 0 24 24" xmlns="http://www.w3.org/2000/svg">
<path fill="currentColor" d="M17.2826 23.4232L18.4218 22.2535C18.7665 21.9225 18.9705 21.4714 18.9915 20.9938C19.0189 20.7168 18.9818 20.4372 18.8829 20.177C18.7841 19.9168 18.6263 19.6831 18.4218 19.4943L11.0168 11.9963L18.4218 4.49842C18.6263 4.30957 18.7841 4.07585 18.8829 3.81564C18.9818 3.55543 19.0189 3.27584 18.9915 2.99884C18.9705 2.52132 18.7665 2.07023 18.4218 1.73919L17.2826 0.599502C16.9474 0.239216 16.4849 0.0240078 15.9935 -0.000331327C15.7339 -0.00581352 15.4763 0.0449592 15.2382 0.1485C15.0002 0.252041 14.7874 0.405897 14.6144 0.599502L4.57103 10.6167C4.38294 10.7925 4.23475 11.0067 4.13648 11.2447C4.03821 11.4827 3.99215 11.739 4.00141 11.9963C3.99538 12.2577 4.0428 12.5176 4.14075 12.76C4.2387 13.0024 4.38512 13.2222 4.57103 13.4059L14.5244 23.4232C14.71 23.6234 14.9387 23.7788 15.1933 23.8776C15.4478 23.9763 15.7214 24.0158 15.9935 23.993C16.4806 23.9766 16.9425 23.7724 17.2826 23.4232Z" />
</svg>
