<svg viewBox="0 0 24 24"  xmlns="http://www.w3.org/2000/svg">
<path fill="currentColor" d="M23.7159 20.041L14.063 1.32599C13.8868 0.931341 13.5992 0.596003 13.2351 0.36064C12.871 0.125277 12.4461 0 12.0118 0C11.5775 0 11.1526 0.125277 10.7885 0.36064C10.4244 0.596003 10.1368 0.931341 9.96056 1.32599L0.307692 20.041C0.105248 20.4518 0 20.9032 0 21.3607C0 21.8182 0.105248 22.2696 0.307692 22.6803C0.496534 23.0551 0.78082 23.3741 1.13224 23.6057C1.48366 23.8372 1.88995 23.9731 2.31066 24H21.6164C22.0455 23.9814 22.4618 23.8493 22.8224 23.6173C23.183 23.3854 23.4748 23.0619 23.6676 22.6803C23.8776 22.2732 23.9911 21.8237 23.9995 21.3663C24.0079 20.9088 23.9109 20.4555 23.7159 20.041ZM11.9635 20.7848C11.6533 20.7896 11.3487 20.7027 11.0882 20.5353C10.8276 20.3679 10.6229 20.1274 10.4998 19.8443C10.3767 19.5612 10.3408 19.2481 10.3966 18.9447C10.4525 18.6413 10.5975 18.3612 10.8135 18.1397C11.0294 17.9183 11.3066 17.7655 11.6099 17.7007C11.9132 17.6359 12.229 17.6619 12.5174 17.7755C12.8058 17.8891 13.0539 18.0852 13.2302 18.339C13.4065 18.5928 13.5032 18.8929 13.508 19.2013C13.5112 19.4061 13.4738 19.6095 13.3979 19.8C13.322 19.9904 13.2091 20.1641 13.0657 20.3111C12.9223 20.4582 12.7511 20.5757 12.562 20.657C12.3729 20.7383 12.1695 20.7817 11.9635 20.7848ZM11.9635 15.9861C11.7575 15.983 11.5542 15.9395 11.3651 15.8583C11.176 15.777 11.0048 15.6595 10.8614 15.5124C10.718 15.3654 10.6051 15.1917 10.5292 15.0012C10.4533 14.8108 10.4159 14.6073 10.4191 14.4025V7.99623C10.4089 7.89583 10.4201 7.79443 10.4519 7.69862C10.4837 7.6028 10.5354 7.5147 10.6037 7.44004C10.672 7.36538 10.7553 7.30582 10.8482 7.26523C10.9411 7.22464 11.0415 7.20393 11.143 7.20444H12.784C12.8812 7.20438 12.9773 7.22376 13.0668 7.26143C13.1562 7.29909 13.2371 7.35427 13.3047 7.42367C13.3722 7.49308 13.425 7.57529 13.46 7.66541C13.4949 7.75552 13.5112 7.85171 13.508 7.94824V14.4025C13.508 14.812 13.3461 15.2051 13.0571 15.4969C12.7681 15.7887 12.3753 15.9558 11.9635 15.9621V15.9861Z" />
</svg>
