<svg viewBox="0 0 14 14" xmlns="http://www.w3.org/2000/svg">
<path fill="currentColor" d="M8.39984 13.9992H1.40065C1.21509 14.0056 1.03018 13.9738 0.857424 13.9058C0.68467 13.8377 0.527768 13.7348 0.396473 13.6035C0.265178 13.4722 0.162298 13.3153 0.0942319 13.1426C0.0261656 12.9698 -0.00563189 12.7849 0.000816635 12.5993V5.60016C-0.00563189 5.4146 0.0261656 5.22969 0.0942319 5.05693C0.162298 4.88418 0.265178 4.72728 0.396473 4.59598C0.527768 4.46469 0.68467 4.36181 0.857424 4.29374C1.03018 4.22568 1.21509 4.19388 1.40065 4.20033H4.20033V1.40065C4.19388 1.21509 4.22568 1.03018 4.29374 0.857424C4.36181 0.68467 4.46469 0.527768 4.59598 0.396473C4.72728 0.265178 4.88418 0.162298 5.05693 0.0942319C5.22969 0.0261656 5.4146 -0.00563189 5.60016 0.000816635H12.5993C12.7849 -0.00563189 12.9698 0.0261656 13.1426 0.0942319C13.3153 0.162298 13.4722 0.265178 13.6035 0.396473C13.7348 0.527768 13.8377 0.68467 13.9058 0.857424C13.9738 1.03018 14.0056 1.21509 13.9992 1.40065V8.39984C14.0055 8.58538 13.9737 8.77024 13.9056 8.94295C13.8375 9.11565 13.7346 9.27251 13.6033 9.40379C13.472 9.53506 13.3152 9.63794 13.1425 9.70605C12.9698 9.77415 12.7849 9.80602 12.5993 9.79967H9.79967V12.5993C9.80602 12.7849 9.77415 12.9698 9.70605 13.1425C9.63794 13.3152 9.53506 13.472 9.40379 13.6033C9.27251 13.7346 9.11565 13.8375 8.94295 13.9056C8.77024 13.9737 8.58538 14.0055 8.39984 13.9992ZM1.40065 5.60016V12.5993H8.39984V9.79967H5.60016C5.41462 9.80602 5.22976 9.77415 5.05705 9.70605C4.88435 9.63794 4.72749 9.53506 4.59621 9.40379C4.46494 9.27251 4.36206 9.11565 4.29395 8.94295C4.22585 8.77024 4.19398 8.58538 4.20033 8.39984V5.60016H1.40065ZM5.60016 1.40065V8.39984H12.5993V1.40065H5.60016Z" />
</svg>
