<svg width="24" height="24" viewBox="0 0 24 24" fill="none" xmlns="http://www.w3.org/2000/svg">
<path d="M3.42857 0C2.51926 0 1.64719 0.361223 1.00421 1.00421C0.361223 1.64719 0 2.51926 0 3.42857V20.5714C0 21.4807 0.361223 22.3528 1.00421 22.9958C1.64719 23.6388 2.51926 24 3.42857 24H20.5714C21.4807 24 22.3528 23.6388 22.9958 22.9958C23.6388 22.3528 24 21.4807 24 20.5714V3.42857C24 2.51926 23.6388 1.64719 22.9958 1.00421C22.3528 0.361223 21.4807 0 20.5714 0H3.42857ZM10.2857 17.8526L5.64514 13.212L8.06914 10.788L10.2857 13.0046L16.788 6.50229L19.212 8.92629L10.2857 17.8526Z" fill="black"/>
</svg>
