<svg width="24" height="24" viewBox="0 0 24 24" fill="none" xmlns="http://www.w3.org/2000/svg">
<g clip-path="url(#clip0_2080_1483)">
<path d="M14.9793 4.00829L19.7895 8.8023L7.47525 21.3146L2.66499 16.4008L14.9793 4.00829ZM23.5896 2.83376L21.401 0.62852C20.9953 0.225991 20.4462 0 19.8737 0C19.3013 0 18.7521 0.225991 18.3464 0.62852L16.254 2.73788L21.0642 7.53189L23.4694 5.13488C23.7858 4.84224 23.9753 4.43824 23.9978 4.00863C24.0202 3.57901 23.8738 3.15758 23.5896 2.83376ZM0.019347 23.3042C-0.00662558 23.3994 -0.00644468 23.4999 0.0198708 23.5951C0.0461864 23.6903 0.0976706 23.7767 0.168944 23.8453C0.240218 23.9139 0.328665 23.9621 0.425044 23.985C0.521423 24.0079 0.622197 24.0045 0.716835 23.9753L6.15243 22.657L1.34217 17.863L0.019347 23.3042Z" fill="black"/>
</g>
<defs>
<clipPath id="clip0_2080_1483">
<rect width="24" height="24" fill="white"/>
</clipPath>
</defs>
</svg>
