<svg width="24" height="24" viewBox="0 0 24 24" fill="none" xmlns="http://www.w3.org/2000/svg">
<path d="M16.1211 11.9082L23.1511 4.88465C23.4199 4.62456 23.6334 4.31411 23.7792 3.97149C23.9249 3.62887 24 3.26096 24 2.88932C24 2.51768 23.9249 2.14977 23.7792 1.80715C23.6334 1.46453 23.4199 1.15408 23.1511 0.893981C22.8972 0.612783 22.586 0.387775 22.2378 0.233709C21.8897 0.0796427 21.5125 0 21.131 0C20.7495 0 20.3723 0.0796427 20.0242 0.233709C19.676 0.387775 19.3648 0.612783 19.1109 0.893981L12.0808 8.19692L4.88913 1.0137C4.6352 0.732504 4.32395 0.507496 3.97581 0.35343C3.62767 0.199364 3.25049 0.119719 2.869 0.119719C2.48751 0.119719 2.11033 0.199364 1.76219 0.35343C1.41405 0.507496 1.1028 0.732504 0.848866 1.0137C0.580109 1.2738 0.366599 1.58425 0.220838 1.92687C0.075078 2.26949 0 2.6374 0 3.00904C0 3.38068 0.075078 3.74859 0.220838 4.09121C0.366599 4.43383 0.580109 4.74428 0.848866 5.00438L8.04054 11.9082L1.01048 19.2112C0.741721 19.4713 0.528209 19.7817 0.382449 20.1243C0.236689 20.467 0.16161 20.8349 0.16161 21.2065C0.16161 21.5782 0.236689 21.9461 0.382449 22.2887C0.528209 22.6313 0.741721 22.9418 1.01048 23.2018C1.53148 23.7006 2.22444 23.9857 2.9498 24C3.3106 24.0013 3.66802 23.9314 4.00106 23.7943C4.3341 23.6573 4.63604 23.4558 4.88913 23.2018L12.0808 15.8989L19.2725 23.0821C19.5256 23.3361 19.8275 23.5375 20.1606 23.6746C20.4936 23.8117 20.851 23.8816 21.2118 23.8803C21.9372 23.866 22.6301 23.5808 23.1511 23.0821C23.4199 22.822 23.6334 22.5116 23.7792 22.169C23.9249 21.8263 24 21.4584 24 21.0868C24 20.7151 23.9249 20.3472 23.7792 20.0046C23.6334 19.662 23.4199 19.3515 23.1511 19.0915L16.1211 11.9082Z" fill="black"/>
</svg>
