<svg width="24" height="24" viewBox="0 0 24 24" fill="none" xmlns="http://www.w3.org/2000/svg">
<path d="M24 12C24 9.62663 23.2962 7.30655 21.9776 5.33316C20.6591 3.35977 18.7849 1.8217 16.5922 0.913451C14.3995 0.0051995 11.9867 -0.232441 9.65892 0.230582C7.33115 0.693605 5.19295 1.83649 3.51472 3.51472C1.83649 5.19295 0.693605 7.33115 0.230582 9.65892C-0.232441 11.9867 0.0051995 14.3995 0.913451 16.5922C1.8217 18.7849 3.35977 20.6591 5.33316 21.9776C7.30655 23.2962 9.62663 24 12 24C15.1826 24 18.2348 22.7357 20.4853 20.4853C22.7357 18.2348 24 15.1826 24 12Z" fill="black"/>
<path d="M13.7171 11.9618L16.6463 9.03527C16.7583 8.9269 16.8473 8.79755 16.908 8.65479C16.9687 8.51203 17 8.35873 17 8.20388C17 8.04903 16.9687 7.89574 16.908 7.75298C16.8473 7.61022 16.7583 7.48087 16.6463 7.37249C16.5405 7.25533 16.4108 7.16157 16.2658 7.09738C16.1207 7.03318 15.9635 7 15.8046 7C15.6456 7 15.4885 7.03318 15.3434 7.09738C15.1984 7.16157 15.0687 7.25533 14.9629 7.37249L12.0337 10.4154L9.03714 7.42238C8.93133 7.30521 8.80165 7.21146 8.65659 7.14726C8.51153 7.08307 8.35437 7.04988 8.19542 7.04988C8.03646 7.04988 7.8793 7.08307 7.73425 7.14726C7.58919 7.21146 7.4595 7.30521 7.35369 7.42238C7.24171 7.53075 7.15275 7.6601 7.09202 7.80286C7.03128 7.94562 7 8.09892 7 8.25377C7 8.40862 7.03128 8.56191 7.09202 8.70467C7.15275 8.84743 7.24171 8.97678 7.35369 9.08516L10.3502 11.9618L7.42103 15.0047C7.30905 15.113 7.22009 15.2424 7.15935 15.3851C7.09862 15.5279 7.06734 15.6812 7.06734 15.836C7.06734 15.9909 7.09862 16.1442 7.15935 16.2869C7.22009 16.4297 7.30905 16.5591 7.42103 16.6674C7.63812 16.8752 7.92685 16.9941 8.22909 17C8.37942 17.0005 8.52834 16.9714 8.66711 16.9143C8.80587 16.8572 8.93168 16.7733 9.03714 16.6674L12.0337 13.6245L15.0302 16.6176C15.1357 16.7234 15.2615 16.8073 15.4002 16.8644C15.539 16.9215 15.6879 16.9507 15.8383 16.9501C16.1405 16.9442 16.4292 16.8253 16.6463 16.6176C16.7583 16.5092 16.8473 16.3798 16.908 16.2371C16.9687 16.0943 17 15.941 17 15.7862C17 15.6313 16.9687 15.478 16.908 15.3353C16.8473 15.1925 16.7583 15.0631 16.6463 14.9548L13.7171 11.9618Z" fill="white"/>
</svg>
