<svg width="24" height="24" viewBox="0 0 24 24" fill="none" xmlns="http://www.w3.org/2000/svg">
<g clip-path="url(#clip0_2080_1485)">
<path d="M0.577076 17.2824L1.74675 18.4216C2.07779 18.7662 2.52889 18.9702 3.0064 18.9912C3.2834 19.0187 3.563 18.9815 3.82321 18.8827C4.08341 18.7838 4.31713 18.626 4.50599 18.4216L12.0039 11.0165L19.5018 18.4216C19.6907 18.626 19.9244 18.7838 20.1846 18.8827C20.4448 18.9815 20.7244 19.0187 21.0014 18.9912C21.4789 18.9702 21.93 18.7662 22.2611 18.4216L23.4007 17.2824C23.761 16.9471 23.9762 16.4846 24.0006 15.9932C24.0061 15.7337 23.9553 15.4761 23.8517 15.238C23.7482 14.9999 23.5943 14.7871 23.4007 14.6141L13.3835 4.57078C13.2077 4.38269 12.9936 4.23451 12.7556 4.13624C12.5176 4.03797 12.2612 3.99191 12.0039 4.00116C11.7425 3.99514 11.4827 4.04256 11.2403 4.14051C10.9979 4.23846 10.7781 4.38488 10.5943 4.57078L0.577076 14.5242C0.376808 14.7098 0.221422 14.9385 0.122694 15.193C0.0239639 15.4475 -0.0155201 15.7212 0.00723457 15.9932C0.0236702 16.4803 0.227848 16.9422 0.577076 17.2824Z" fill="black"/>
</g>
<defs>
<clipPath id="clip0_2080_1485">
<rect width="24" height="24" fill="white" transform="translate(24.0002 24) rotate(180)"/>
</clipPath>
</defs>
</svg>
