<svg width="24" height="24" viewBox="0 0 24 24" fill="none" xmlns="http://www.w3.org/2000/svg">
<g clip-path="url(#clip0_2080_1482)">
<path d="M6.71765 0.576832L5.5784 1.74651C5.23375 2.07755 5.02977 2.52864 5.00878 3.00616C4.98132 3.28316 5.01847 3.56276 5.11731 3.82296C5.21615 4.08317 5.37399 4.31689 5.5784 4.50574L12.9835 12.0037L5.5784 19.5016C5.37399 19.6904 5.21615 19.9242 5.11731 20.1844C5.01847 20.4446 4.98132 20.7242 5.00878 21.0012C5.02977 21.4787 5.23375 21.9298 5.5784 22.2608L6.71765 23.4005C7.05286 23.7608 7.51538 23.976 8.00679 24.0003C8.26631 24.0058 8.52395 23.955 8.762 23.8515C9.00005 23.748 9.21288 23.5941 9.38588 23.4005L19.4292 13.3833C19.6173 13.2075 19.7655 12.9933 19.8638 12.7553C19.962 12.5173 20.0081 12.261 19.9988 12.0037C20.0049 11.7423 19.9574 11.4824 19.8595 11.24C19.7615 10.9976 19.6151 10.7778 19.4292 10.5941L9.47582 0.576832C9.29023 0.376564 9.06151 0.221178 8.80699 0.12245C8.55247 0.0237198 8.27883 -0.0157642 8.00679 0.00699043C7.51968 0.0234261 7.05777 0.227604 6.71765 0.576832Z" fill="black"/>
</g>
<defs>
<clipPath id="clip0_2080_1482">
<rect width="24" height="24" fill="white" transform="translate(0 24) rotate(-90)"/>
</clipPath>
</defs>
</svg>
