<svg viewBox="0 0 111 26" xmlns="http://www.w3.org/2000/svg">
<path d="M25.7394 8.35333V11.8459H19.1116C18.0941 11.8459 17.1076 12.2057 16.33 12.86L12.1666 16.3603C10.9043 17.4188 9.3065 18.0022 7.65951 18.0022H0.73938V14.5069L7.36714 14.5097C8.38186 14.5097 9.37061 14.1499 10.1488 13.4955L14.3121 9.99525C15.5717 8.93681 17.1723 8.35333 18.8165 8.35333H25.7383H25.7394Z" fill="currentColor"/>
<path d="M25.7394 14.5097V18.0022H21.0709C20.2331 18.0022 19.4184 18.2995 18.7756 18.8387L13.0322 23.6687V19.1072L17.0397 15.7398C17.982 14.9448 19.1785 14.5097 20.4121 14.5097H25.7389H25.7394Z" fill="currentColor"/>
<path d="M13.4461 2.68414V7.24564L9.43859 10.6158C8.49405 11.4108 7.29695 11.8459 6.06612 11.8459H0.73938V8.35336H5.40512C6.24298 8.35336 7.05764 8.05608 7.7004 7.5169L13.4461 2.68414Z" fill="currentColor"/>
<path d="M106.108 15.3082C107.333 14.4844 108.063 13.1139 108.063 11.6367V9.78776C108.063 7.34915 106.082 5.36475 103.647 5.36475H96.9632V20.911H100.205V16.1184H102.915L105.056 20.911H108.512L106.109 15.3082H106.108ZM104.947 11.3659C104.947 12.3725 104.127 13.1935 103.119 13.1935H100.204V8.33148H103.119C104.127 8.33148 104.947 9.15243 104.947 10.1618V11.3653V11.3659Z" fill="currentColor"/>
<path d="M91.8251 5.02962C91.5418 4.96868 91.2472 4.93652 90.9503 4.93652H88.4171C88.136 4.93652 87.8971 4.96304 87.5974 5.02962C85.685 5.43869 84.2981 7.15508 84.2981 9.11579V17.1042C84.2981 19.0621 85.685 20.7807 87.5974 21.1875C87.8999 21.2513 88.1388 21.2778 88.4171 21.2778H90.9503C91.2522 21.2778 91.5468 21.2485 91.8229 21.1875C93.7348 20.7807 95.1222 19.0621 95.1222 17.1042V9.11579C95.1222 7.15508 93.7348 5.43869 91.8251 5.02962V5.02962ZM91.9367 16.8091C91.9367 17.6938 91.2179 18.4138 90.3346 18.4138H89.0857C88.2024 18.4138 87.4836 17.6938 87.4836 16.8091V9.40524C87.4836 8.52334 88.2024 7.80338 89.0857 7.80338H90.3346C91.2179 7.80338 91.9367 8.52334 91.9367 9.40524V16.8091Z" fill="currentColor"/>
<path d="M81.5238 12.8877C82.3542 12.0532 82.8104 10.9456 82.8104 9.77141C82.8104 7.3407 80.8371 5.3642 78.4104 5.3642H71.8832V20.911H78.4081C80.8349 20.911 82.811 18.9187 82.811 16.4717V16.2804C82.811 15.0453 82.2911 13.8604 81.3813 13.0231C81.4292 12.9808 81.4771 12.9356 81.5244 12.8877H81.5238ZM74.8981 8.19325H78.0408C79.0092 8.19325 79.7967 8.98261 79.7967 9.94914C79.7967 10.4191 79.6136 10.8604 79.2824 11.195C78.9506 11.5273 78.5106 11.7079 78.0408 11.7079H74.8981V8.19325V8.19325ZM78.0408 17.9669H74.8981V14.4523H78.0408C79.0092 14.4523 79.7967 15.2411 79.7967 16.2082C79.7967 16.6782 79.6136 17.1194 79.2824 17.454C78.9506 17.7835 78.5106 17.9669 78.0408 17.9669Z" fill="currentColor"/>
<path d="M67.9625 15.3082C69.1878 14.4844 69.9172 13.1139 69.9172 11.6367V9.78776C69.9172 7.34915 67.9389 5.36475 65.5037 5.36475H58.8171V20.911H62.0584V16.1184H64.7691L66.9097 20.911H70.3656L67.9625 15.3082V15.3082ZM66.801 11.3659C66.801 12.3725 65.9814 13.1935 64.9736 13.1935H62.0584V8.33148H64.9736C65.9814 8.33148 66.801 9.15243 66.801 10.1618V11.3653V11.3659Z" fill="currentColor"/>
<path d="M52.6241 4.95233H49.932C47.6325 4.95233 45.7623 6.82784 45.7623 9.13103V20.9105H49.1095V16.123H53.446V20.9105H56.7932V9.13159C56.7932 6.8284 54.9235 4.9529 52.6235 4.9529L52.6241 4.95233ZM53.4465 13.1935H49.1101V9.59878C49.1101 8.75638 49.7945 8.07366 50.6328 8.07366H51.9244C52.7655 8.07366 53.4471 8.75638 53.4471 9.59878V13.1935H53.4465Z" fill="currentColor"/>
<path d="M43.3383 5.3642V20.9082H39.9934V16.1235H35.6519V20.9082H32.3098V5.3642H35.6519V13.1963H39.9934V5.3642H43.3383Z" fill="currentColor"/>
</svg>
