<svg viewBox="0 0 24 24" xmlns="http://www.w3.org/2000/svg">
<path fill="currentColor" d="M20.3999 24H21.5999V21.6H20.3999V20.4C20.3976 18.9422 20.0168 17.51 19.2946 16.2437C18.5724 14.9773 17.5338 13.9203 16.2803 13.176C15.8543 12.924 15.5999 12.5196 15.5999 12.0948V11.9052C15.5999 11.4804 15.8543 11.076 16.2791 10.8252C17.5328 10.0808 18.5717 9.02356 19.2941 7.75702C20.0164 6.49048 20.3975 5.05805 20.3999 3.6V2.4H21.5999V0H2.3999V2.4H3.5999V3.6C3.60234 5.05805 3.98339 6.49048 4.70574 7.75702C5.4281 9.02356 6.46699 10.0808 7.7207 10.8252C8.1455 11.076 8.3999 11.4792 8.3999 11.9052V12.0948C8.3999 12.5196 8.1455 12.924 7.7207 13.1748C6.46699 13.9192 5.4281 14.9764 4.70574 16.243C3.98339 17.5095 3.60234 18.9419 3.5999 20.4V21.6H2.3999V24H20.3999ZM17.9999 2.4V3.6C17.9981 4.8987 17.5754 6.16182 16.7951 7.2H7.2047C6.42444 6.16182 6.00172 4.8987 5.9999 3.6V2.4H17.9999ZM8.9399 15.2424C10.1051 14.5536 10.7999 13.3776 10.7999 12.0948V12H13.1999V12.0948C13.1999 13.3764 13.8947 14.5536 15.0611 15.2424C16.1393 15.8841 16.9883 16.8489 17.4875 18H6.5123C7.01166 16.8486 7.86106 15.8837 8.9399 15.2424V15.2424Z" />
</svg>
