<svg  viewBox="0 0 24 24"  xmlns="http://www.w3.org/2000/svg">
<path fill="currentColor" d="M10.9978 20.0094L23.3399 7.66728C23.7947 7.12188 24.0292 6.42612 23.9971 5.71669C23.965 5.00726 23.6688 4.33547 23.1667 3.83332C22.6645 3.33116 21.9927 3.03496 21.2833 3.0029C20.5739 2.97085 19.8781 3.20526 19.3327 3.66008L9.51509 13.5979C9.38063 13.7277 9.20106 13.8002 9.01419 13.8002C8.82732 13.8002 8.64775 13.7277 8.51329 13.5979L4.86674 9.95138C4.32891 9.43231 3.61061 9.14222 2.86314 9.14222C2.11568 9.14222 1.39738 9.43231 0.859545 9.95138C0.58796 10.2097 0.371717 10.5205 0.223956 10.8649C0.0761951 11.2093 0 11.5802 0 11.955C0 12.3298 0.0761951 12.7006 0.223956 13.0451C0.371717 13.3895 0.58796 13.7003 0.859545 13.9586L7.03063 20.0094C7.56173 20.5259 8.27335 20.8149 9.01419 20.8149C9.75503 20.8149 10.4667 20.5259 10.9978 20.0094Z" />
</svg>
