<svg  viewBox="0 0 24 24"  xmlns="http://www.w3.org/2000/svg">
<path fill="currentColor" d="M12 0C14.3734 0 16.6935 0.703788 18.6668 2.02236C20.6402 3.34094 22.1783 5.21509 23.0866 7.4078C23.9948 9.60051 24.2324 12.0133 23.7694 14.3411C23.3064 16.6689 22.1635 18.8071 20.4853 20.4853C18.8071 22.1635 16.6689 23.3064 14.3411 23.7694C12.0133 24.2324 9.60051 23.9948 7.4078 23.0866C5.21509 22.1783 3.34094 20.6402 2.02236 18.6668C0.703788 16.6935 0 14.3734 0 12C0 8.8174 1.26428 5.76516 3.51472 3.51472C5.76516 1.26428 8.8174 0 12 0V0ZM11.328 17.448L18.72 10.056C18.9924 9.72935 19.1328 9.31264 19.1136 8.88775C19.0944 8.46286 18.917 8.0605 18.6162 7.75975C18.3155 7.459 17.9131 7.2816 17.4883 7.2624C17.0634 7.2432 16.6466 7.3836 16.32 7.656L10.44 13.608C10.3595 13.6857 10.2519 13.7292 10.14 13.7292C10.0281 13.7292 9.92053 13.6857 9.84 13.608L7.656 11.424C7.33388 11.1131 6.90368 10.9394 6.456 10.9394C6.00833 10.9394 5.57812 11.1131 5.256 11.424C5.09334 11.5787 4.96383 11.7648 4.87533 11.9711C4.78683 12.1774 4.7412 12.3995 4.7412 12.624C4.7412 12.8485 4.78683 13.0706 4.87533 13.2769C4.96383 13.4832 5.09334 13.6693 5.256 13.824L8.952 17.448C9.27009 17.7573 9.6963 17.9304 10.14 17.9304C10.5837 17.9304 11.0099 17.7573 11.328 17.448Z" />
</svg>
