<svg  viewBox="0 0 24 24"  xmlns="http://www.w3.org/2000/svg">
<path fill="currentColor" d="M6.43393 20.4548C6.79979 20.8091 7.29134 21.0061 7.80229 21.0032C8.31227 21.0011 8.802 20.8048 9.17066 20.4548L23.4305 6.29069C23.6119 6.11319 23.756 5.90161 23.8544 5.66827C23.9528 5.43492 24.0034 5.18448 24.0034 4.93151C24.0034 4.67854 23.9528 4.4281 23.8544 4.19475C23.756 3.96141 23.6119 3.74983 23.4305 3.57233C23.2518 3.39209 23.0388 3.24895 22.8038 3.15125C22.5689 3.05355 22.3168 3.00323 22.0621 3.00323C21.8074 3.00323 21.5553 3.05355 21.3204 3.15125C21.0855 3.24895 20.8724 3.39209 20.6937 3.57233L7.77829 16.3772L3.31309 11.942C3.13439 11.7618 2.92138 11.6186 2.68646 11.5209C2.45154 11.4232 2.19941 11.3729 1.94473 11.3729C1.69005 11.3729 1.43791 11.4232 1.20299 11.5209C0.968072 11.6186 0.755063 11.7618 0.576361 11.942C0.394901 12.1195 0.250797 12.3311 0.152435 12.5644C0.054073 12.7978 0.00341797 13.0482 0.00341797 13.3012C0.00341797 13.5542 0.054073 13.8046 0.152435 14.0379C0.250797 14.2713 0.394901 14.4829 0.576361 14.6604L6.43393 20.4548Z" />
</svg>
